<svg xmlns="http://www.w3.org/2000/svg" version="1.1" xmlns:xlink="http://www.w3.org/1999/xlink" xmlns:svgjs="http://svgjs.dev/svgjs" width="100%" height="100%" viewBox="0 0 1000 600"><rect width="1000" height="600" x="0" y="0" fill="#ff4b4b"/><g><circle r="166.66666666666666" cx="400.12002054850257" cy="422.3422190637067" fill="#4b4bff" transform="matrix(0.5354388816647826,0,0,0.5354388816647827,0,73.86154310061443)"/><path d="M415.91106249621856 347.34221935561817L436.9856893618902 347.34221935561817L393.55285354099465 497.1332641317376L371.64240577980064 497.1332641317376L336.80658488427827 376.56609995263307L300.7170326454723 497.1332641317376L279.0155401081588 497.34221935561817L237.1050923469648 347.34221935561817L257.94091324248717 347.34221935561817L290.5976296603976 474.3571447287525L326.7170326454723 347.34221935561817L348.62748040666634 347.34221935561817L383.01554010815886 473.9093835347226L415.91106249621856 347.34221935561817ZM533.4633013021887 419.96908502725995Q541.6424057798008 421.2526671168121 548.4185251827857 426.62580144517034Q555.1946445857709 431.99893577352856 559.1647938395022 439.96908502725995Q563.1349430932335 447.9093835347226 563.1349430932335 456.9541596541256L563.1349430932335 456.9541596541256Q563.1349430932335 468.3272939824838 557.343898317114 477.4616223406927Q551.5230027947262 486.59595069890173 540.4483759290545 491.87953278845396Q529.4035998096515 497.1332641317376 514.3588236902485 497.1332641317376L514.3588236902485 497.1332641317376L458.478226675323 497.1332641317376L458.478226675323 347.34221935561817L512.2095699589051 347.34221935561817Q527.4633013021887 347.34221935561817 538.2095699589051 352.38699547502114Q548.9558386156216 357.4317715944241 554.3289729439798 366.0287865197972Q559.702107272338 374.62580144517034 559.702107272338 385.3720701018868L559.702107272338 385.3720701018868Q559.702107272338 398.68550293770767 552.5080774215917 407.40192084815544Q545.2841968245768 416.1183387586032 533.4633013021887 419.96908502725995L533.4633013021887 419.96908502725995ZM478.0304654812932 363.46162234069277L478.0304654812932 412.0287865197972L510.8961371230842 412.0287865197972Q524.6573311529351 412.0287865197972 532.1797192126364 405.58102532576737Q539.702107272338 399.1332641317376 539.702107272338 387.7302790571107L539.702107272338 387.7302790571107Q539.702107272338 376.3571447287525 532.1797192126364 369.9093835347226Q524.6573311529351 363.46162234069277 510.478226675323 363.46162234069277L510.478226675323 363.46162234069277L478.0304654812932 363.46162234069277ZM512.6274804066663 481.0138611466629Q527.2543460783081 481.0138611466629 535.4035998096515 474.1481895048719Q543.5827042872634 467.2526671168122 543.5827042872634 455.0138611466629L543.5827042872634 455.0138611466629Q543.5827042872634 442.5362492063644 534.9856893618903 435.3422193556181Q526.388674436517 428.1481895048719 511.9707639887559 428.1481895048719L511.9707639887559 428.1481895048719L478.0304654812932 428.1481895048719L478.0304654812932 481.0138611466629L512.6274804066663 481.0138611466629Z " fill="#ffffff" transform="matrix(0.5354388816647826,0,0,0.5354388816647827,0,73.86154310061443)"/><path d="M816.7248726425487 355.96450696661566L836.3614384502141 355.96450696661566L795.8923120335664 495.53431889701943L775.4769589134157 495.53431889701943L743.0182162823314 383.19424907101285L709.3912926825191 495.53431889701943L689.1706363904897 495.72901572514075L650.1200154358689 355.96450696661566L669.5340705828243 355.96450696661566L699.962403434929 474.3123646317946L733.6171408673301 355.96450696661566L754.0324939874808 355.96450696661566L786.0740291297338 473.89515714296317L816.7248726425487 355.96450696661566ZM956.5171952336625 436.4577384784906Q956.5171952336625 441.6589251725889 955.9052909167096 447.47201618364005L955.9052909167096 447.47201618364005L868.1804629317569 447.47201618364005Q869.1817609049522 463.6874805828878 879.3059959672614 472.8104176720015Q889.4302310295705 481.90554092852636 903.8377963105488 481.90554092852636L903.8377963105488 481.90554092852636Q915.6586751607722 481.90554092852636 923.5578036159804 476.39840207595165Q931.4847459037774 470.89126322337694 934.683336651485 461.684884636497L934.683336651485 461.684884636497L954.2920886265615 461.684884636497Q949.8975030775373 477.51095537950215 936.6859325978758 487.41267978110113Q923.4743621182142 497.3422180152889 903.8377963105488 497.3422180152889L903.8377963105488 497.3422180152889Q888.206422395665 497.3422180152889 875.9127083914325 490.33313220292104Q863.5911805546111 483.32404639055324 856.5820947422435 470.39061423677924Q849.5730089298756 457.4849959155941 849.5730089298756 440.4629303712722L849.5730089298756 440.4629303712722Q849.5730089298756 423.44086482695036 856.387397914122 410.6186880035314Q863.1739730657798 397.79651118011253 875.495500902601 390.8986806980997Q887.8170287394223 384.000850216087 903.8377963105488 384.000850216087L903.8377963105488 384.000850216087Q919.4691702254324 384.000850216087 931.4847459037774 390.7874253677447Q943.5003215821223 397.6018143519912 950.0087584078924 409.53394853256975Q956.5171952336625 421.4382688805595 956.5171952336625 436.4577384784906L956.5171952336625 436.4577384784906ZM937.687230571071 432.6472434138303Q937.687230571071 422.2448700256336 933.0701343613368 414.7351352266681Q928.4808519841911 407.22540042770254 920.5539096963942 403.30365003268724Q912.6547812411861 399.40971347026067 903.0311951654746 399.40971347026067L903.0311951654746 399.40971347026067Q889.2077203688602 399.40971347026067 879.5006927953827 408.226698400898Q869.793665221905 417.04368333153525 868.4029735924669 432.6472434138303L868.4029735924669 432.6472434138303L937.687230571071 432.6472434138303ZM998.7664069359907 406.22410245450715Q1004.3569872863318 396.40581955067444 1015.1765681633599 390.2033348833807Q1025.996149040388 384.000850216087 1039.8196238370024 384.000850216087L1039.8196238370024 384.000850216087Q1054.644396606812 384.000850216087 1066.4374616244468 391.0099360284548Q1078.2583404746704 398.0190218408226 1085.0727294589167 410.72994333388647Q1091.8871184431632 423.44086482695036 1091.8871184431632 440.26823354315087L1091.8871184431632 440.26823354315087Q1091.8871184431632 456.87309159864134 1085.0727294589167 469.88996525018155Q1078.2583404746704 482.9068389017218 1066.3540201266806 490.1384353747997Q1054.4218859461018 497.3422180152889 1039.8196238370024 497.3422180152889L1039.8196238370024 497.3422180152889Q1025.6067553841453 497.3422180152889 1014.8706160048835 491.1397333479951Q1004.1622904582105 484.90943484811265 998.7664069359907 475.31366260499004L998.7664069359907 475.31366260499004L998.7664069359907 495.53431889701943L980.5483465903521 495.53431889701943L980.5483465903521 347.34221886409966L998.7664069359907 347.34221886409966L998.7664069359907 406.22410245450715ZM1073.2518506086933 440.26823354315087Q1073.2518506086933 427.83545037597463 1068.2453607427162 418.62907178909467Q1063.2388708767392 409.4226932022147 1054.7278381045783 404.610900164359Q1046.2168053324174 399.7991071265033 1036.009128772342 399.7991071265033L1036.009128772342 399.7991071265033Q1025.996149040388 399.7991071265033 1017.4851162682271 404.72215549471406Q1008.9740834960662 409.617390030336 1003.856338299734 418.93502394757104Q998.7664069359907 428.25265786480605 998.7664069359907 440.4629303712722L998.7664069359907 440.4629303712722Q998.7664069359907 452.86789970585966 1003.856338299734 462.1855336230947Q1008.9740834960662 471.5031675403297 1017.4851162682271 476.39840207595165Q1025.996149040388 481.3214504441624 1036.009128772342 481.3214504441624L1036.009128772342 481.3214504441624Q1046.2168053324174 481.3214504441624 1054.7278381045783 476.39840207595165Q1063.2388708767392 471.5031675403297 1068.2453607427162 462.1855336230947Q1073.2518506086933 452.86789970585966 1073.2518506086933 440.26823354315087L1073.2518506086933 440.26823354315087ZM1162.5620670512055 425.63815760146247Q1162.5620670512055 405.22280448131175 1171.7962594706742 388.89608475170894Q1181.0026380575541 372.56936502210607 1196.9121502983255 363.3629864352261Q1212.8494763716858 354.1566078483462 1232.263531518641 354.1566078483462L1232.263531518641 354.1566078483462Q1255.098688074014 354.1566078483462 1272.1207536183358 365.1708855534956Q1289.1428191626578 376.18516325864505 1296.9585061200996 396.40581955067444L1296.9585061200996 396.40581955067444L1275.1246475379223 396.40581955067444Q1269.311556526871 383.7783395553769 1258.4085341520765 376.9917644037192Q1247.4776979446935 370.17737541947264 1232.263531518641 370.17737541947264L1232.263531518641 370.17737541947264Q1217.6334555769527 370.17737541947264 1206.0350873874393 376.9917644037192Q1194.408905365337 383.7783395553769 1187.8170270418007 396.2945642203194Q1181.1973348856754 408.81078888526196 1181.1973348856754 425.63815760146247L1181.1973348856754 425.63815760146247Q1181.1973348856754 442.27082948954165 1187.8170270418007 454.7870541544842Q1194.408905365337 467.3032788194268 1206.0350873874393 474.11766780367327Q1217.6334555769527 480.904242955331 1232.263531518641 480.904242955331L1232.263531518641 480.904242955331Q1247.4776979446935 480.904242955331 1258.4085341520765 474.20110930143954Q1269.311556526871 467.4979756475481 1275.1246475379223 454.8704956522505L1275.1246475379223 454.8704956522505L1296.9585061200996 454.8704956522505Q1289.1428191626578 474.89645511615856 1272.1207536183358 485.8272913235417Q1255.098688074014 496.73031369833615 1232.263531518641 496.73031369833615L1232.263531518641 496.73031369833615Q1212.8494763716858 496.73031369833615 1196.9121502983255 487.6351904418112Q1181.0026380575541 478.51225335269754 1171.7962594706742 462.2967889534497Q1162.5620670512055 446.08132455420196 1162.5620670512055 425.63815760146247L1162.5620670512055 425.63815760146247ZM1317.179162412129 440.26823354315087Q1317.179162412129 423.44086482695036 1323.9935513963756 410.72994333388647Q1330.7801265480332 398.0190218408226 1342.7122607286117 391.0099360284548Q1354.6165810766017 384.000850216087 1369.2466570182899 384.000850216087L1369.2466570182899 384.000850216087Q1383.6542222992682 384.000850216087 1394.2791063481752 390.2033348833807Q1404.8761765644933 396.40581955067444 1410.1051770911802 405.8068949656757L1410.1051770911802 405.8068949656757L1410.1051770911802 385.78093550176766L1428.51793426494 385.78093550176766L1428.51793426494 495.53431889701943L1410.1051770911802 495.53431889701943L1410.1051770911802 475.11896577686866Q1404.6814797363718 484.7147380199913 1393.9731541896988 491.0284780176401Q1383.2648286430256 497.3422180152889 1369.0519601901685 497.3422180152889L1369.0519601901685 497.3422180152889Q1354.4218842484804 497.3422180152889 1342.6010053982568 490.1384353747997Q1330.7801265480332 482.9068389017218 1323.9935513963756 469.88996525018155Q1317.179162412129 456.87309159864134 1317.179162412129 440.26823354315087L1317.179162412129 440.26823354315087ZM1410.1051770911802 440.4629303712722Q1410.1051770911802 428.05796103668473 1405.0986872252033 418.823768617216Q1400.0921973592265 409.617390030336 1391.5811645870654 404.72215549471406Q1383.0701318149045 399.7991071265033 1372.8346414222403 399.7991071265033L1372.8346414222403 399.7991071265033Q1362.6269648621649 399.7991071265033 1354.227187420359 404.610900164359Q1345.7995961459644 409.4226932022147 1340.7931062799873 418.62907178909467Q1335.7866164140103 427.83545037597463 1335.7866164140103 440.26823354315087L1335.7866164140103 440.26823354315087Q1335.7866164140103 452.86789970585966 1340.7931062799873 462.1855336230947Q1345.7995961459644 471.5031675403297 1354.227187420359 476.39840207595165Q1362.6269648621649 481.3214504441624 1372.8346414222403 481.3214504441624L1372.8346414222403 481.3214504441624Q1383.0701318149045 481.3214504441624 1391.5811645870654 476.39840207595165Q1400.0921973592265 471.5031675403297 1405.0986872252033 462.1855336230947Q1410.1051770911802 452.86789970585966 1410.1051770911802 440.4629303712722L1410.1051770911802 440.4629303712722ZM1477.5815349515149 403.6096021911636Q1482.3933279893706 394.20852677616233 1491.2937544177742 389.007340082064Q1500.2219946787666 383.7783395553769 1513.0163576695966 383.7783395553769L1513.0163576695966 383.7783395553769L1513.0163576695966 402.6083042179682L1508.2323784643297 402.6083042179682Q1477.5815349515149 402.6083042179682 1477.5815349515149 435.8458341615378L1477.5815349515149 435.8458341615378L1477.5815349515149 495.53431889701943L1459.3634746058765 495.53431889701943L1459.3634746058765 385.78093550176766L1477.5815349515149 385.78093550176766L1477.5815349515149 403.6096021911636ZM1634.1734124262405 436.4577384784906Q1634.1734124262405 441.6589251725889 1633.5893219418765 447.47201618364005L1633.5893219418765 447.47201618364005L1545.8644939569238 447.47201618364005Q1546.8657919301193 463.6874805828878 1556.990026992428 472.8104176720015Q1567.0864482221484 481.90554092852636 1581.5218273357154 481.90554092852636L1581.5218273357154 481.90554092852636Q1593.342706185939 481.90554092852636 1601.2418346411473 476.39840207595165Q1609.1409630963553 470.89126322337694 1612.3673676766518 461.684884636497L1612.3673676766518 461.684884636497L1631.9761196517284 461.684884636497Q1627.5815341027042 477.51095537950215 1614.3699636230424 487.41267978110113Q1601.1305793107922 497.3422180152889 1581.5218273357154 497.3422180152889L1581.5218273357154 497.3422180152889Q1565.8904534208318 497.3422180152889 1553.5689255840105 490.33313220292104Q1541.2752115797782 483.32404639055324 1534.2661257674104 470.39061423677924Q1527.2570399550425 457.4849959155941 1527.2570399550425 440.4629303712722L1527.2570399550425 440.4629303712722Q1527.2570399550425 423.44086482695036 1534.0436151067004 410.6186880035314Q1540.8580040909467 397.79651118011253 1553.1795319277678 390.8986806980997Q1565.501059764589 384.000850216087 1581.5218273357154 384.000850216087L1581.5218273357154 384.000850216087Q1597.1253874180106 384.000850216087 1609.1409630963553 390.7874253677447Q1621.1565387747003 397.6018143519912 1627.6649756004704 409.53394853256975Q1634.1734124262405 421.4382688805595 1634.1734124262405 436.4577384784906L1634.1734124262405 436.4577384784906ZM1615.371261596238 432.6472434138303Q1615.371261596238 422.2448700256336 1610.7541653865037 414.7351352266681Q1606.1370691767693 407.22540042770254 1598.237940721561 403.30365003268724Q1590.338812266353 399.40971347026067 1580.7152261906415 399.40971347026067L1580.7152261906415 399.40971347026067Q1566.891751394027 399.40971347026067 1557.1847238205496 408.226698400898Q1547.477696247072 417.04368333153525 1546.059190785045 432.6472434138303L1546.059190785045 432.6472434138303L1615.371261596238 432.6472434138303Z " fill="#ffffff" transform="matrix(0.5354388816647826,0,0,0.5354388816647827,0,73.86154310061443)"/></g></svg>