<svg xmlns="http://www.w3.org/2000/svg" version="1.1" xmlns:xlink="http://www.w3.org/1999/xlink" xmlns:svgjs="http://svgjs.dev/svgjs" width="100%" height="100%" viewBox="0 0 1000 600"><rect width="1000" height="600" x="0" y="0" fill="#ff4b4b"/><g><circle r="166.66666666666666" cx="418.40917460123694" cy="423.83195597628753" fill="#4b4bff" transform="matrix(0.5320438659083194,0,0,0.5320438659083194,-4.18263151670287,74.50281811308197)"/><path d="M418.08728158981927 350.73404442442404L438.7466642637716 350.73404442442404L396.16960790314744 497.57367935061797L374.6908729418428 497.57367935061797L340.5414401082701 379.3821119000605L305.16297884366895 497.57367935061797L283.8890819542025 497.778517422456L242.804417259827 350.73404442442404L263.22969928025014 350.73404442442404L295.2429636503689 475.24632952026997L330.6506874966612 350.73404442442404L352.12942245796575 350.73404442442404L385.83991656617127 474.80739079490274L418.08728158981927 350.73404442442404ZM452.6463905670681 424.0368115607564Q452.6463905670681 402.55807659945185 462.33230510683904 385.3809411467464Q472.01821964660985 368.20380569404097 488.7856789556392 358.5178911542701Q505.5238756829773 348.83197661449924 525.9491577034005 348.83197661449924L525.9491577034005 348.83197661449924Q549.9737372718353 348.83197661449924 567.8824372668194 360.41995896419496Q585.7911372618034 372.00794131389057 594.0139227170168 393.2818382033571L594.0139227170168 393.2818382033571L571.0427960894635 393.2818382033571Q564.9269165160131 379.9966261155747 553.455984493082 372.85655618293396Q541.985052470151 365.68722366860203 525.9491577034005 365.68722366860203L525.9491577034005 365.68722366860203Q510.58630231554645 365.68722366860203 498.35454316864536 372.85655618293396Q486.1520466034356 379.9966261155747 479.1875521609418 393.16478787659247Q472.2230577184479 406.3329496376103 472.2230577184479 424.0368115607564L472.2230577184479 424.0368115607564Q472.2230577184479 441.5358354120645 479.1875521609418 454.70399717308226Q486.1520466034356 467.8721589341 498.35454316864536 475.04149144843194Q510.58630231554645 482.1815613810727 525.9491577034005 482.1815613810727L525.9491577034005 482.1815613810727Q541.985052470151 482.1815613810727 553.455984493082 475.1292791935054Q564.9269165160131 468.0769970059381 571.0427960894635 454.7917849181557L571.0427960894635 454.7917849181557L594.0139227170168 454.7917849181557Q585.7911372618034 475.86084373578416 567.8824372668194 487.36103834040637Q549.9737372718353 498.8319703633374 525.9491577034005 498.8319703633374L525.9491577034005 498.8319703633374Q505.5238756829773 498.8319703633374 488.7856789556392 489.2631061503311Q472.01821964660985 479.66497935563376 462.33230510683904 462.60489422969295Q452.6463905670681 445.54480910375213 452.6463905670681 424.0368115607564L452.6463905670681 424.0368115607564Z " fill="#ffffff" transform="matrix(0.5320438659083194,0,0,0.5320438659083194,-4.18263151670287,74.50281811308197)"/><path d="M835.0140260485852 357.4542635930278L854.6505918562506 357.4542635930278L814.1814654396029 497.0240755234316L793.7661123194522 497.0240755234316L761.3073696883679 384.684005697425L727.6804460885555 497.0240755234316L707.4597897965261 497.2187723515529L668.4091688419055 357.4542635930278L687.8232239888607 357.4542635930278L718.2515568409656 475.80212125820674L751.9062942733666 357.4542635930278L772.3216473935173 357.4542635930278L804.3631825357703 475.3849137693753L835.0140260485852 357.4542635930278ZM974.806348639699 437.94749510490277Q974.806348639699 443.14868179900105 974.1944443227462 448.9617728100522L974.1944443227462 448.9617728100522L886.4696163377934 448.9617728100522Q887.4709143109887 465.17723720929996 897.5951493732979 474.30017429841365Q907.7193844356069 483.3952975549385 922.1269497165853 483.3952975549385L922.1269497165853 483.3952975549385Q933.9478285668088 483.3952975549385 941.8469570220169 477.8881587023638Q949.7738993098138 472.3810198497891 952.9724900575214 463.1746412629091L952.9724900575214 463.1746412629091L972.581242032598 463.1746412629091Q968.1866564835738 479.0007120059143 954.9750860039122 488.9024364075133Q941.7635155242507 498.83197464170104 922.1269497165853 498.83197464170104L922.1269497165853 498.83197464170104Q906.4955758017014 498.83197464170104 894.201861797469 491.8228888293332Q881.8803339606477 484.8138030169654 874.87124814828 471.8803708631914Q867.8621623359121 458.97475254200623 867.8621623359121 441.95268699768434L867.8621623359121 441.95268699768434Q867.8621623359121 424.9306214533625 874.6765513201585 412.10844462994356Q881.4631264718164 399.2862678065247 893.7846543086375 392.38843732451187Q906.1061821454588 385.4906068424991 922.1269497165853 385.4906068424991L922.1269497165853 385.4906068424991Q937.758323631469 385.4906068424991 949.7738993098138 392.2771819941568Q961.7894749881588 399.09157097840335 968.2979118139289 411.0237051589819Q974.806348639699 422.92802550697166 974.806348639699 437.94749510490277L974.806348639699 437.94749510490277ZM955.9763839771076 434.13700004024247Q955.9763839771076 423.73462665204573 951.3592877673733 416.22489185308024Q946.7700053902277 408.7151570541147 938.8430631024307 404.7934066590994Q930.9439346472226 400.8994700966728 921.3203485715111 400.8994700966728L921.3203485715111 400.8994700966728Q907.4968737748968 400.8994700966728 897.7898462014192 409.71645502731013Q888.0828186279415 418.5334399579474 886.6921269985035 434.13700004024247L886.6921269985035 434.13700004024247L955.9763839771076 434.13700004024247ZM1017.0555603420272 407.7138590809193Q1022.6461406923682 397.8955761770866 1033.4657215693965 391.69309150979285Q1044.2853024464243 385.4906068424991 1058.1087772430387 385.4906068424991L1058.1087772430387 385.4906068424991Q1072.9335500128486 385.4906068424991 1084.7266150304831 392.4996926548669Q1096.547493880707 399.5087784672347 1103.3618828649533 412.2196999602986Q1110.1762718491998 424.9306214533625 1110.1762718491998 441.757990169563L1110.1762718491998 441.757990169563Q1110.1762718491998 458.3628482250535 1103.3618828649533 471.3797218765937Q1096.547493880707 484.39659552813396 1084.643173532717 491.62819200121186Q1072.7110393521384 498.83197464170104 1058.1087772430387 498.83197464170104L1058.1087772430387 498.83197464170104Q1043.8959087901817 498.83197464170104 1033.15976941092 492.62948997440725Q1022.4514438642469 486.3991914745248 1017.0555603420272 476.8034192314022L1017.0555603420272 476.8034192314022L1017.0555603420272 497.0240755234316L998.8374999963886 497.0240755234316L998.8374999963886 348.8319754905118L1017.0555603420272 348.8319754905118L1017.0555603420272 407.7138590809193ZM1091.5410040147299 441.757990169563Q1091.5410040147299 429.3252070023868 1086.5345141487528 420.1188284155068Q1081.5280242827757 410.91244982862685 1073.0169915106148 406.10065679077115Q1064.505958738454 401.28886375291546 1054.2982821783785 401.28886375291546L1054.2982821783785 401.28886375291546Q1044.2853024464243 401.28886375291546 1035.7742696742635 406.2119121211262Q1027.2632369021026 411.10714665674817 1022.1454917057705 420.4247805739832Q1017.0555603420272 429.7424144912182 1017.0555603420272 441.95268699768434L1017.0555603420272 441.95268699768434Q1017.0555603420272 454.3576563322718 1022.1454917057705 463.6752902495069Q1027.2632369021026 472.99292416674183 1035.7742696742635 477.8881587023638Q1044.2853024464243 482.81120707057454 1054.2982821783785 482.81120707057454L1054.2982821783785 482.81120707057454Q1064.505958738454 482.81120707057454 1073.0169915106148 477.8881587023638Q1081.5280242827757 472.99292416674183 1086.5345141487528 463.6752902495069Q1091.5410040147299 454.3576563322718 1091.5410040147299 441.757990169563L1091.5410040147299 441.757990169563ZM1180.851220457242 427.1279142278746Q1180.851220457242 406.7125611077239 1190.0854128767107 390.3858413781211Q1199.2917914635907 374.05912164851827 1215.201303704362 364.8527430616383Q1231.1386297777221 355.64636447475834 1250.5526849246776 355.64636447475834L1250.5526849246776 355.64636447475834Q1273.3878414800506 355.64636447475834 1290.4099070243722 366.66064217990777Q1307.4319725686944 377.6749198850572 1315.2476595261362 397.8955761770866L1315.2476595261362 397.8955761770866L1293.4138009439587 397.8955761770866Q1287.6007099329074 385.268096181789 1276.6976875581129 378.48152103013126Q1265.7668513507301 371.6671320458848 1250.5526849246776 371.6671320458848L1250.5526849246776 371.6671320458848Q1235.922608982989 371.6671320458848 1224.3242407934758 378.48152103013126Q1212.6980587713736 385.268096181789 1206.1061804478372 397.78432084673153Q1199.486488291712 410.3005455116741 1199.486488291712 427.1279142278746L1199.486488291712 427.1279142278746Q1199.486488291712 443.7605861159538 1206.1061804478372 456.27681078089637Q1212.6980587713736 468.79303544583894 1224.3242407934758 475.6074244300854Q1235.922608982989 482.3939995817431 1250.5526849246776 482.3939995817431L1250.5526849246776 482.3939995817431Q1265.7668513507301 482.3939995817431 1276.6976875581129 475.6908659278517Q1287.6007099329074 468.98773227396026 1293.4138009439587 456.36025227866264L1293.4138009439587 456.36025227866264L1315.2476595261362 456.36025227866264Q1307.4319725686944 476.3862117425707 1290.4099070243722 487.31704794995386Q1273.3878414800506 498.2200703247483 1250.5526849246776 498.2200703247483L1250.5526849246776 498.2200703247483Q1231.1386297777221 498.2200703247483 1215.201303704362 489.1249470682233Q1199.2917914635907 480.0020099791097 1190.0854128767107 463.78654557986187Q1180.851220457242 447.5710811806141 1180.851220457242 427.1279142278746L1180.851220457242 427.1279142278746ZM1335.4683158181654 441.757990169563Q1335.4683158181654 424.9306214533625 1342.2827048024121 412.2196999602986Q1349.0692799540695 399.5087784672347 1361.001414134648 392.4996926548669Q1372.905734482638 385.4906068424991 1387.5358104243262 385.4906068424991L1387.5358104243262 385.4906068424991Q1401.9433757053046 385.4906068424991 1412.5682597542116 391.69309150979285Q1423.1653299705297 397.8955761770866 1428.3943304972165 407.29665159208787L1428.3943304972165 407.29665159208787L1428.3943304972165 387.2706921281798L1446.8070876709764 387.2706921281798L1446.8070876709764 497.0240755234316L1428.3943304972165 497.0240755234316L1428.3943304972165 476.6087224032808Q1422.9706331424084 486.2044946464034 1412.2623075957351 492.51823464405226Q1401.553982049062 498.83197464170104 1387.3411135962049 498.83197464170104L1387.3411135962049 498.83197464170104Q1372.7110376545168 498.83197464170104 1360.8901588042934 491.62819200121186Q1349.0692799540695 484.39659552813396 1342.2827048024121 471.3797218765937Q1335.4683158181654 458.3628482250535 1335.4683158181654 441.757990169563L1335.4683158181654 441.757990169563ZM1428.3943304972165 441.95268699768434Q1428.3943304972165 429.5477176630969 1423.38784063124 420.31352524362813Q1418.3813507652628 411.10714665674817 1409.870317993102 406.2119121211262Q1401.359285220941 401.28886375291546 1391.1237948282767 401.28886375291546L1391.1237948282767 401.28886375291546Q1380.9161182682012 401.28886375291546 1372.5163408263954 406.10065679077115Q1364.0887495520008 410.91244982862685 1359.0822596860237 420.1188284155068Q1354.0757698200466 429.3252070023868 1354.0757698200466 441.757990169563L1354.0757698200466 441.757990169563Q1354.0757698200466 454.3576563322718 1359.0822596860237 463.6752902495069Q1364.0887495520008 472.99292416674183 1372.5163408263954 477.8881587023638Q1380.9161182682012 482.81120707057454 1391.1237948282767 482.81120707057454L1391.1237948282767 482.81120707057454Q1401.359285220941 482.81120707057454 1409.870317993102 477.8881587023638Q1418.3813507652628 472.99292416674183 1423.38784063124 463.6752902495069Q1428.3943304972165 454.3576563322718 1428.3943304972165 441.95268699768434L1428.3943304972165 441.95268699768434ZM1495.8706883575512 405.09935881757576Q1500.682481395407 395.6982834025745 1509.5829078238105 390.49709670847614Q1518.511148084803 385.268096181789 1531.305511075633 385.268096181789L1531.305511075633 385.268096181789L1531.305511075633 404.09806084438037L1526.521531870366 404.09806084438037Q1495.8706883575512 404.09806084438037 1495.8706883575512 437.33559078794997L1495.8706883575512 437.33559078794997L1495.8706883575512 497.0240755234316L1477.652628011913 497.0240755234316L1477.652628011913 387.2706921281798L1495.8706883575512 387.2706921281798L1495.8706883575512 405.09935881757576ZM1652.4625658322768 437.94749510490277Q1652.4625658322768 443.14868179900105 1651.8784753479129 448.9617728100522L1651.8784753479129 448.9617728100522L1564.15364736296 448.9617728100522Q1565.1549453361556 465.17723720929996 1575.2791803984644 474.30017429841365Q1585.3756016281848 483.3952975549385 1599.810980741752 483.3952975549385L1599.810980741752 483.3952975549385Q1611.6318595919754 483.3952975549385 1619.5309880471839 477.8881587023638Q1627.430116502392 472.3810198497891 1630.6565210826882 463.1746412629091L1630.6565210826882 463.1746412629091L1650.265273057765 463.1746412629091Q1645.8706875087407 479.0007120059143 1632.6591170290787 488.9024364075133Q1619.4197327168288 498.83197464170104 1599.810980741752 498.83197464170104L1599.810980741752 498.83197464170104Q1584.1796068268684 498.83197464170104 1571.8580789900468 491.8228888293332Q1559.5643649858146 484.8138030169654 1552.555279173447 471.8803708631914Q1545.5461933610788 458.97475254200623 1545.5461933610788 441.95268699768434L1545.5461933610788 441.95268699768434Q1545.5461933610788 424.9306214533625 1552.3327685127367 412.10844462994356Q1559.147157496983 399.2862678065247 1571.4686853338042 392.38843732451187Q1583.7902131706253 385.4906068424991 1599.810980741752 385.4906068424991L1599.810980741752 385.4906068424991Q1615.4145408240472 385.4906068424991 1627.430116502392 392.2771819941568Q1639.4456921807366 399.09157097840335 1645.954129006507 411.0237051589819Q1652.4625658322768 422.92802550697166 1652.4625658322768 437.94749510490277L1652.4625658322768 437.94749510490277ZM1633.6604150022742 434.13700004024247Q1633.6604150022742 423.73462665204573 1629.0433187925403 416.22489185308024Q1624.4262225828058 408.7151570541147 1616.5270941275974 404.7934066590994Q1608.6279656723893 400.8994700966728 1599.0043795966778 400.8994700966728L1599.0043795966778 400.8994700966728Q1585.1809048000634 400.8994700966728 1575.4738772265862 409.71645502731013Q1565.7668496531085 418.5334399579474 1564.3483441910814 434.13700004024247L1564.3483441910814 434.13700004024247L1633.6604150022742 434.13700004024247Z " fill="#ffffff" transform="matrix(0.5320438659083194,0,0,0.5320438659083194,-4.18263151670287,74.50281811308197)"/></g></svg>